<svg xmlns="http://www.w3.org/2000/svg" viewBox="0 0 128 128"><path fill="#D22128" d="M64.034 1.604c-.465-.009-.715.182-.758.638-.1 1.134-.148 2.271-.226 3.407-.039.567.153.871.728 1.021 1.206.316 2.405.667 3.603 1.014.407.118.629.07.811-.371.547-1.334 1.135-2.652 1.703-3.978.132-.31.111-.545-.164-.788-.609-.538-1.369-.643-2.11-.704-1.197-.099-2.397-.169-3.587-.239zM57.074 8.09c-.486.018-.795.232-.951.696-.414 1.234-.862 2.456-1.263 3.695-.174.538-.027.852.504 1.074 1.154.479 2.296.987 3.449 1.469.401.168.666.076.887-.303.641-1.098 1.312-2.18 1.949-3.282.268-.464.182-.86-.26-1.17-.987-.694-2.061-1.161-3.205-1.473-.364-.098-.737-.173-1.11-.706zm14.053.086c-.458-.01-.916.017-1.373.082-.826.119-1.168.527-1.094 1.374.115 1.334.223 2.668.32 4.004.036.5.286.721.78.767 1.26.118 2.518.257 3.778.38.432.041.706-.152.868-.543.413-1.001.835-1.999 1.228-3.007.184-.472.074-.885-.34-1.199-1.23-.932-2.637-1.455-4.167-1.858zM50.57 14.742c-.375-.01-.75.044-1.12.164-.78.253-1.031.678-.811 1.482.343 1.257.692 2.513 1.02 3.775.137.528.429.778.982.791 1.278.031 2.555.097 3.832.151.436.019.686-.196.84-.592.429-1.093.888-2.175 1.303-3.274.204-.54.072-.996-.439-1.329-1.152-.751-2.428-1.135-3.773-1.168h-.038l-1.796.001zm21.1.02c-.397-.01-.795.008-1.193.053-1.039.118-1.436.602-1.272 1.626.267 1.672.555 3.34.853 5.007.104.58.468.866 1.057.855 1.128-.019 2.256-.005 3.384-.028.539-.011.835-.3.993-.816.378-1.235.78-2.462 1.149-3.7.179-.602.022-1.089-.487-1.455-1.196-.859-2.554-1.301-4-1.494-.162-.021-.323-.039-.484-.048zm-27.66 8.086c-.343-.009-.686.026-1.026.107-.845.201-1.132.6-.971 1.452.307 1.62.64 3.234.98 4.848.128.607.48.921 1.113.915 1.151-.011 2.302.001 3.453-.005.486-.003.772-.26.918-.714.397-1.228.818-2.448 1.199-3.682.206-.666.049-1.194-.538-1.59-1.186-.799-2.504-1.175-3.898-1.28-.41-.031-.82-.042-1.23-.051zm33.777.098c-.33-.005-.661.011-.992.05-1.25.148-1.743.733-1.536 1.972.353 2.108.72 4.213 1.103 6.315.126.695.536 1.043 1.243 1.016 1.034-.04 2.07-.037 3.102-.099.579-.035.914-.417 1.06-.962.354-1.325.718-2.647 1.054-3.977.187-.741-.02-1.352-.632-1.832-1.194-.938-2.568-1.415-4.065-1.459l-.02-.001-.317-.023zm-39.949 8.37c-.291-.007-.582.018-.871.074-.908.177-1.223.576-1.084 1.49.28 1.841.574 3.68.882 5.518.127.758.51 1.133 1.295 1.123 1.069-.013 2.139.007 3.207-.026.547-.017.87-.343 1.016-.858.388-1.368.795-2.731 1.166-4.104.193-.714-.004-1.295-.601-1.731-1.14-.833-2.41-1.248-3.778-1.406-.41-.046-.822-.071-1.232-.08zm45.696.05c-.298-.006-.596.009-.895.047-1.478.189-2.044.874-1.805 2.34.417 2.547.845 5.091 1.293 7.632.157.89.612 1.31 1.517 1.285.939-.025 1.88-.003 2.82-.05.542-.027.895-.358 1.058-.874.396-1.255.793-2.51 1.163-3.773.254-.866-.007-1.585-.7-2.163-1.362-1.137-2.937-1.818-4.688-2.136a8.024 8.024 0 00-.763-.308zm-51.54 8.728c-.272-.006-.544.018-.815.07-.872.172-1.222.563-1.114 1.44.24 1.936.496 3.87.766 5.803.113.809.504 1.222 1.33 1.226 1.011.004 2.023.036 3.033-.005.59-.024.941-.382 1.098-.942.392-1.398.799-2.791 1.171-4.195.198-.747-.02-1.353-.625-1.818-1.052-.808-2.245-1.238-3.528-1.452a7.91 7.91 0 00-1.316-.127zm56.896.098c-.251-.005-.503.009-.755.042-1.713.222-2.351.991-2.081 2.694.49 3.093.993 6.184 1.52 9.27.182 1.061.687 1.526 1.768 1.489.855-.029 1.714.008 2.568-.037.583-.031.963-.376 1.142-.93.403-1.247.803-2.495 1.174-3.753.277-.938-.016-1.729-.742-2.376-1.478-1.317-3.211-2.124-5.119-2.587-.492-.122-.983-.252-1.475-.812zm-62.278 9.227c-.231-.005-.462.015-.693.06-.896.173-1.277.573-1.194 1.479.196 2.146.416 4.29.648 6.432.102.947.529 1.41 1.49 1.422.956.012 1.913.052 2.867-.005.617-.036 1-.422 1.164-1.01.395-1.414.8-2.826 1.171-4.248.203-.778-.034-1.406-.657-1.889-1.033-.802-2.204-1.261-3.464-1.496a7.636 7.636 0 00-1.332-.745zm67.239.1c-.211-.004-.422.009-.633.04-2.031.303-2.738 1.142-2.42 3.159.596 3.788 1.206 7.574 1.843 11.354.219 1.3.772 1.833 2.09 1.792.775-.024 1.554.018 2.328-.04.603-.046 1.015-.405 1.205-1.001.404-1.266.808-2.532 1.177-3.809.296-1.025-.037-1.882-.807-2.608-1.617-1.525-3.523-2.547-5.611-3.24-1.13-.375-1.303-.73-1.42-1.33a42.012 42.012 0 00-.287-1.587c-.157-.802-.54-1.206-1.354-1.21l-.111-2.52zm-72.308 9.696c-.21-.004-.42.014-.631.054-.866.164-1.273.564-1.216 1.444.146 2.268.317 4.534.499 6.8.079.988.517 1.51 1.517 1.553.918.039 1.838.066 2.755.03.63-.025 1.046-.419 1.225-1.02.409-1.376.826-2.75 1.21-4.134.22-.795-.018-1.456-.65-1.97-1.048-.855-2.243-1.352-3.531-1.652a7.455 7.455 0 00-1.178-1.105zm-4.848 10.246c-.19-.003-.38.012-.57.047-.878.159-1.305.56-1.271 1.45.086 2.293.196 4.586.318 6.877.052.98.5 1.52 1.491 1.589.876.061 1.757.091 2.633.056.638-.025 1.067-.418 1.257-1.027.43-1.378.869-2.754 1.27-4.142.23-.799-.017-1.476-.66-2.003-1.059-.868-2.267-1.38-3.577-1.695a7.27 7.27 0 00-.891-1.152z"/></svg>
