<svg xmlns="http://www.w3.org/2000/svg" viewBox="0 0 24 24" fill="#D22128"><path d="M10.494 14.98l1.09-2.752h.78l-.058-.26-.696-.002-1.156-3.181-.937 2.598h-.046l-.08.217.05.001-.918 2.528-1.088-2.996H5.89l-.23.634-.232.004L3.01 5.534l-.64 1.752 2.063 5.712.002-.001.62 1.712.003-.01.638 1.76h1.603l.908-2.435.045.002.07-.194-.065-.001.864-2.377.038.108.019-.001.007.02.066-.001.906 2.499h1.54l.797-2.098zM11.75 5.534l2.106 5.842h-.773l-.058.26h.888l1.343 3.74 1.315-3.637.007-.001.024-.066-.068-.001.005-.013.058-.26-.009-.001.023-.064-.777-.002 2.098-5.797h-1.545l-1.362 3.672-1.342-3.672zm8.215 0L17.93 11.08l.06.263.808.002-1.09 2.753-.003.01-1.095 2.754-.006.014-.645 1.59h1.588l1.706-4.374.004.001.024-.062-.068-.001.009-.024.017.001.008-.023.763.002L22 7.29z"/></svg>
