<svg xmlns="http://www.w3.org/2000/svg" viewBox="0 0 128 128"><path fill="#F38020" d="M102.4 79.3l2.2-7.4c1.1-3.7.6-7.1-1.4-9.6-1.9-2.3-4.9-3.6-8.5-3.7l-51.6-.7c-.5 0-.9-.2-1.1-.5-.2-.4-.2-.8-.1-1.2.2-.7.8-1.2 1.6-1.2l52-0.7c8.3-.3 17.3-7 20.2-15.1l3.6-10.2c.2-.5.2-1 .1-1.5-3.5-16.7-18.5-29.1-36.3-29.1-16.4 0-30.4 10.6-35.4 25.3-3.2-2.4-7.2-3.6-11.5-3.2-7.6.8-13.7 7-14.5 14.6-.2 1.8 0 3.5.3 5.2C9.3 41.3 0 51.4 0 63.7c0 1.3.1 2.6.3 3.9.1.8.8 1.4 1.7 1.4h98.1c.8 0 1.5-.5 1.7-1.3l.6-2.4z"/><path fill="#FAAE40" d="M111.1 42.3c-.5 0-1 0-1.5.1-.6 0-1.1.5-1.2 1.1l-1.6 5.5c-1.1 3.7-.6 7.1 1.4 9.6 1.9 2.3 4.9 3.6 8.5 3.7l10.2.1c.5 0 .9.2 1.1.5.2.4.2.8.1 1.2-.2.7-.8 1.2-1.6 1.2l-10.6.1c-8.4.3-17.3 7-20.2 15.1l-1 2.8c-.2.6.2 1.2.8 1.2h31.4c.7 0 1.4-.5 1.6-1.1 1-3.8 1.5-7.8 1.5-11.8 0-16.1-12.6-29.3-18.9-29.3z"/></svg>
