<svg xmlns="http://www.w3.org/2000/svg" viewBox="0 0 24 24" fill="#458CF5"><path d="M12 0C5.372 0 0 5.372 0 12s5.372 12 12 12 12-5.372 12-12S18.628 0 12 0zm0 2.4A9.6 9.6 0 0 1 21.6 12c0 .67-.069 1.324-.2 1.955l-4.593-1.478A5.4 5.4 0 0 0 12 6.6c-.18 0-.357.01-.533.027l-1.44-4.476A9.572 9.572 0 0 1 12 2.4zm-2.4.386L11.04 7.26A5.382 5.382 0 0 0 6.6 12c0 .297.025.588.072.872L2.2 14.08A9.555 9.555 0 0 1 2.4 12 9.6 9.6 0 0 1 9.6 2.786zM12 8.4a3.6 3.6 0 1 1 0 7.2 3.6 3.6 0 0 1 0-7.2zm-9.446 7.288l4.48-1.207c.578 1.735 1.99 3.08 3.76 3.568l-1.2 4.494A9.598 9.598 0 0 1 2.554 15.688zm8.252 5.906l1.2-4.489A5.399 5.399 0 0 0 17.4 12c0-.108-.005-.214-.013-.32l4.414 1.42A9.6 9.6 0 0 1 10.806 21.594z"/></svg>
