<svg xmlns="http://www.w3.org/2000/svg" viewBox="0 0 24 24" fill="#4285F4"><path d="M12.19 2.38a9.344 9.344 0 00-9.234 6.893c.053-.02-.055.013 0 0-3.875 2.551-3.922 8.11-.247 10.941l.006-.007-.007.03a6.717 6.717 0 004.077 1.356h5.173l.03.03h5.192c6.687.053 9.376-8.605 3.835-12.35a9.365 9.365 0 00-8.825-6.893zm.081 2.89a6.474 6.474 0 016.192 5.306l.006.041.02.015a4.7 4.7 0 01-1.538 9.123H11.95l-.03-.03H6.792a3.899 3.899 0 01-3.386-5.805l.016-.016.009-.007a5.577 5.577 0 01-.012-.058c-.012-.058-.012-.058 0 0a6.498 6.498 0 018.852-6.57z"/></svg>
