<svg xmlns="http://www.w3.org/2000/svg" viewBox="0 0 24 24" fill="#E37400"><path d="M22.84 2.998v17.958c.003 1.643-1.329 2.976-2.972 2.98h-.011c-1.645 0-2.98-1.335-2.98-2.98V3.044c.002-1.645 1.336-2.98 2.981-2.98 1.646 0 2.981 1.336 2.982 2.981v-.047zm-8.917 8.96v9.044c0 1.644-1.333 2.979-2.977 2.983-1.645.003-2.98-1.33-2.983-2.975V11.96c0-1.646 1.335-2.981 2.98-2.981 1.646 0 2.98 1.335 2.98 2.98zM4.95 15.98v5.98c0 1.103-.893 1.998-1.996 2.001A2 2 0 01.952 21.96V15.98a2 2 0 011.998-2c1.103 0 2 .897 2 2z"/></svg>
