<svg xmlns="http://www.w3.org/2000/svg" viewBox="0 0 24 24" fill="#0769AD"><path d="M3.047 14.049a7.79 7.79 0 0 0 4.346 4.2 8.02 8.02 0 0 0 6.01-.06c-.51.04-1.02.04-1.53-.01a7.46 7.46 0 0 1-3.14-.96 6.9 6.9 0 0 1-2.39-2.18 6.47 6.47 0 0 1-1.04-2.85 6.65 6.65 0 0 1 .35-2.91c-.65.37-1.24.83-1.75 1.38a5.67 5.67 0 0 0-1.28 2.23 5.3 5.3 0 0 0 .07 2.63c.17.54.42 1.05.74 1.5l.01.02zm4.9-5.57a5.44 5.44 0 0 0 3.45 3.33c1.41.44 2.95.37 4.32-.19-.4.03-.8.03-1.2-.01a5.92 5.92 0 0 1-2.49-.77 5.46 5.46 0 0 1-1.89-1.73 5.13 5.13 0 0 1-.82-2.26 5.27 5.27 0 0 1 .28-2.31c-.52.29-.98.66-1.39 1.09a4.51 4.51 0 0 0-1.01 1.77 4.21 4.21 0 0 0 .06 2.09c.13.43.33.83.59 1.19l.1.13zm4.4-5.01a4.07 4.07 0 0 0 2.58 2.49c1.05.33 2.21.28 3.24-.14-.3.02-.6.02-.9-.01a4.43 4.43 0 0 1-1.86-.58 4.08 4.08 0 0 1-1.41-1.29 3.83 3.83 0 0 1-.62-1.69 3.94 3.94 0 0 1 .21-1.73 4.32 4.32 0 0 0-1.79 2.15c-.2.53-.28 1.1-.24 1.66.04.42.15.83.32 1.21l.05.1.42-.17z"/></svg>
