<svg xmlns="http://www.w3.org/2000/svg" viewBox="0 0 128 128"><path fill="#0769AD" d="M9.625 32.181c-11.029 15.851-9.49 36.6-.121 52.533l.263.433c10.063 16.204 27.394 26.899 45.846 28.551.473.043.947.08 1.422.111l.163.011c1.698.099 3.406.135 5.12.103a62.162 62.162 0 006.604-.471c.323-.041.645-.085.966-.131l.478-.066c25.872-3.678 46.593-23.754 50.419-49.967.251-1.721.436-3.463.551-5.218.045-.681.079-1.364.103-2.05a58.321 58.321 0 00-.148-5.705c-.038-.466-.079-.931-.128-1.395-.091-.866-.2-1.727-.328-2.584-.051-.342-.105-.683-.162-1.023-.12-.711-.254-1.417-.4-2.12l-.159-.732a52.63 52.63 0 00-.547-2.124l-.141-.488a54.79 54.79 0 00-.741-2.295l-.089-.252a60.58 60.58 0 00-1.816-4.559c-.312-.7-.639-1.392-.979-2.077-.339-.684-.689-1.362-1.055-2.031a60.43 60.43 0 00-3.834-6.007 61.263 61.263 0 00-4.525-5.492l-.163-.173a63.173 63.173 0 00-5.354-4.966l-.6-.483a63.52 63.52 0 00-3.067-2.246l-.498-.334c-.548-.364-1.102-.72-1.663-1.065l-.582-.36c-.535-.322-1.076-.635-1.623-.938l-.717-.397c-.498-.27-1-.532-1.506-.786l-.769-.383c-.489-.241-.98-.475-1.476-.699l-.849-.385c-.464-.207-.929-.407-1.398-.601l-.956-.388c-.432-.172-.866-.337-1.303-.497l-1.083-.39c-.393-.138-.788-.27-1.185-.397l-1.216-.382c-.355-.108-.711-.213-1.069-.314l-1.352-.365c-.321-.084-.644-.164-.968-.242l-1.482-.341c-.29-.064-.581-.126-.874-.185l-1.59-.31c-.266-.049-.532-.098-.8-.143l-1.655-.266a62.928 62.928 0 00-.76-.108l-1.669-.212c-.278-.033-.557-.063-.836-.092l-1.62-.152c-.323-.028-.646-.053-.97-.076l-1.479-.092c-.381-.02-.762-.037-1.144-.051l-1.254-.034c-.464-.009-.928-.013-1.393-.011l-.978.014c-.551.01-1.101.027-1.65.054l-.727.038c-.564.034-1.126.076-1.687.126l-.627.057c-.564.056-1.126.121-1.687.195l-.61.081c-.551.076-1.101.16-1.649.252l-.637.109c-.527.092-1.053.192-1.576.3l-.686.141c-.494.104-.986.216-1.476.334l-.75.181c-.461.114-.92.235-1.377.362l-.812.226c-.433.123-.865.251-1.295.385l-.865.271c-.411.131-.82.266-1.227.407l-.905.315c-.393.14-.785.285-1.175.433l-.935.361c-.379.149-.757.301-1.133.458l-.948.402c-.372.16-.742.325-1.111.492l-.945.437c-.372.175-.743.353-1.112.536l-.912.459c-.396.202-.79.408-1.183.619l-.818.445a61.93 61.93 0 00-3.553 2.14l-.613.401a62.72 62.72 0 00-4.159 3.104l-.461.376a62.036 62.036 0 00-2.395 2.101l-.453.418a62.666 62.666 0 00-2.099 2.065l-.451.469a62.47 62.47 0 00-1.856 2.047l-.436.508a63.084 63.084 0 00-1.636 2.012l-.413.534a64.14 64.14 0 00-1.449 1.984l-.386.559c-.456.669-.9 1.346-1.332 2.031l-.261.412z"/></svg>
