<svg xmlns="http://www.w3.org/2000/svg" viewBox="0 0 24 24" fill="#0769AD"><path d="M5.042 11.368c.046.064.09.13.14.192a8.3 8.3 0 0 0 2.357 2.22c1.152.765 2.532 1.272 4.055 1.468a9.6 9.6 0 0 0 3.87-.256 8.1 8.1 0 0 0 1.92-.752l.067-.036c-.443.032-.89.042-1.34.026a11.4 11.4 0 0 1-3.473-.61 9.2 9.2 0 0 1-2.947-1.625 7.7 7.7 0 0 1-2.066-2.548 7.1 7.1 0 0 1-.724-2.125 7.4 7.4 0 0 1 .11-2.768c-.477.254-.933.548-1.363.886A6.5 6.5 0 0 0 4.1 7.68a5.7 5.7 0 0 0-.436 2.142c-.007.537.06 1.072.2 1.588.114.422.275.83.478 1.218l.018.034c.224.418.49.808.795 1.166.036.043.058.067.088.1-.064-.085-.135-.178-.2-.268v-.004Zm3.065-4.71a5.5 5.5 0 0 0-.368 1.583 5.3 5.3 0 0 0 .416 2.478 5.8 5.8 0 0 0 1.56 2.07 7 7 0 0 0 2.394 1.32c1.164.39 2.418.518 3.65.372a7.5 7.5 0 0 0 1.633-.377c.264-.094.52-.208.768-.34-.35.016-.7.012-1.05-.012a8.7 8.7 0 0 1-2.774-.53 7.1 7.1 0 0 1-2.284-1.312 6 6 0 0 1-1.6-2.014 5.5 5.5 0 0 1-.548-1.663 5.7 5.7 0 0 1 .1-2.146c-.687.19-1.347.47-1.96.833a4.4 4.4 0 0 0-.688.486 4.4 4.4 0 0 0-.73.954 3.8 3.8 0 0 0-.266.624 3.9 3.9 0 0 0 .114 2.488c.07.186.158.366.26.54.122.205.263.4.422.58l-.052-.068.006.008c.03.038.058.078.09.116l-.056-.074c.03.04.058.078.09.116a5.2 5.2 0 0 1-.328-.456Zm3.063-4.713a3.6 3.6 0 0 0-.295 1.202 4.2 4.2 0 0 0 .333 1.974 4.5 4.5 0 0 0 1.242 1.648 5.4 5.4 0 0 0 1.928 1.058c.938.31 1.94.416 2.92.296.34-.043.677-.114 1.006-.212.24-.074.475-.166.7-.276a6 6 0 0 1-.858.008 6.7 6.7 0 0 1-2.16-.43 5.5 5.5 0 0 1-1.762-1.044 4.6 4.6 0 0 1-1.22-1.58 4.3 4.3 0 0 1-.41-1.304 4.4 4.4 0 0 1 .1-1.68 5.8 5.8 0 0 0-1.524.34Z"/></svg>
