<svg xmlns="http://www.w3.org/2000/svg" viewBox="0 0 128 128"><path fill="#444" d="M64 1.5c-17 0-32.3 7.3-43 18.9l24.6 24.6c4.2-4.8 10.4-7.8 17.3-7.8 6.9 0 13.1 3 17.3 7.8l24.6-24.6C94.3 8.8 79 1.5 64 1.5z"/><path fill="#444" d="M64 126.5c17 0 32.3-7.3 43-18.9l-24.6-24.6c-4.2 4.8-10.4 7.8-17.3 7.8-6.9 0-13.1-3-17.3-7.8l-24.6 24.6c10.7 11.6 26 18.9 43.8 18.9z"/><path fill="#444" d="M1.5 64c0 17 7.3 32.3 18.9 43l24.6-24.6c-4.8-4.2-7.8-10.4-7.8-17.3 0-6.9 3-13.1 7.8-17.3L20.4 23.2C8.8 33.9 1.5 49.2 1.5 64z"/><path fill="#444" d="M126.5 64c0-17-7.3-32.3-18.9-43l-24.6 24.6c4.8 4.2 7.8 10.4 7.8 17.3 0 6.9-3 13.1-7.8 17.3l24.6 24.6c11.6-10.7 18.9-26 18.9-42.8z"/></svg>
