<svg xmlns="http://www.w3.org/2000/svg" viewBox="0 0 24 24" fill="#1F98F4"><path d="M12.486.001a11.907 11.907 0 0 0-3.168.46c-.074.022-.071.025-.053.097.263 1.073.61 2.122.916 3.186.019.068.038.1.118.077C11.35 3.51 12.477 3.4 13.6 3.48c2.24.16 4.14 1.032 5.652 2.717.96 1.069 1.569 2.317 1.847 3.722.338 1.712.175 3.378-.502 4.98a8.14 8.14 0 0 1-4.008 4.246c-1.43.698-2.94.967-4.52.82-1.44-.133-2.77-.562-3.97-1.335a7.93 7.93 0 0 1-2.916-3.218c-.585-1.218-.827-2.507-.796-3.85.02-.88.17-1.732.443-2.558.031-.095.024-.143-.07-.186-.682-.31-1.36-.628-2.04-.945-.078-.037-.11-.027-.14.05A11.427 11.427 0 0 0 .942 12.09c.053 3.014 1.006 5.67 2.9 7.972a11.807 11.807 0 0 0 7.063 4.347c.653.128 1.318.188 1.987.21h.47a11.57 11.57 0 0 0 4.156-.777A11.994 11.994 0 0 0 24 12.064c.008-.217.004-.435-.007-.652A11.987 11.987 0 0 0 12.486.001Z"/></svg>
