<svg xmlns="http://www.w3.org/2000/svg" viewBox="0 0 128 128"><path fill="#00618A" d="M116.948 97.807c-6.863-.187-12.104.452-16.585 2.341-1.273.537-3.305.552-3.513 2.147.7.733.807 1.829 1.365 2.731 1.07 1.73 2.876 4.052 4.488 5.268 1.762 1.33 3.577 2.751 5.465 3.902 3.358 2.047 7.107 3.217 10.34 5.268 1.906 1.21 3.799 2.733 5.658 4.097.92.675 1.537 1.724 2.732 2.147v-.194c-.628-.79-.79-1.86-1.365-2.732l-2.537-2.537c-2.48-3.292-5.629-6.184-8.976-8.585-2.669-1.916-8.642-4.504-9.755-7.609l-.195-.195c1.892-.214 4.107-.898 5.854-1.367 2.934-.786 5.556-.583 8.585-1.365l4.097-1.171v-.78c-1.531-1.571-2.623-3.651-4.292-5.073-4.37-3.72-9.138-7.437-14.048-10.537-2.724-1.718-6.089-2.835-8.976-4.292-.971-.491-2.677-.746-3.318-1.562-1.517-1.932-2.342-4.382-3.511-6.633-2.449-4.717-4.854-9.868-7.024-14.831-1.48-3.384-2.447-6.72-4.292-9.756-8.85-14.567-18.396-23.358-33.169-32-3.144-1.838-6.929-2.563-10.929-3.513l-6.438-.391c-1.309-.546-2.673-2.149-3.902-2.927C17.811 4.565 5.257-2.17 1.198 6.378c-2.565 5.404 3.832 10.68 6.048 13.415 1.55 1.913 3.536 4.058 4.683 6.241.75 1.427.875 2.86 1.367 4.489 1.214 4.03 2.267 8.407 3.902 12.243.826 1.94 1.741 3.94 2.927 5.659.745 1.078 2.023 1.555 2.145 3.317-1.204 1.686-1.273 4.304-1.95 6.44-3.05 9.615-1.899 21.567 2.537 28.683 1.36 2.186 4.567 6.871 8.975 5.073 3.856-1.573 2.995-6.45 4.098-10.733.249-.973.096-1.689.585-2.341v.195l3.513 7.024c2.6 4.187 7.212 8.562 11.122 11.514 2.027 1.531 3.623 4.177 6.244 5.073v-.196h-.195c-.508-.791-1.303-1.119-1.951-1.755-1.527-1.497-3.225-3.358-4.487-5.073-3.556-4.827-6.698-10.122-9.561-15.613-1.368-2.627-2.557-5.523-3.709-8.196-.444-1.03-.438-2.588-1.365-3.122-1.263 1.958-3.122 3.542-4.098 5.854-1.561 3.696-1.762 8.204-2.341 12.829-.342.122-.19.038-.391.194-2.718-.655-3.672-3.452-4.683-5.853-2.554-6.07-3.029-15.842-.781-22.829.582-1.809 3.21-7.501 2.146-9.172-.508-1.666-2.184-2.63-3.121-3.903-1.161-1.574-2.319-3.646-3.124-5.464-2.09-4.731-3.066-10.044-5.267-14.828-1.053-2.287-2.832-4.602-4.293-6.634-1.617-2.253-3.429-3.912-4.683-6.635-.446-.968-1.051-2.518-.391-3.513.21-.671.507-.951 1.171-1.17 1.132-.873 4.284.29 5.462.779 3.129 1.3 5.741 2.538 8.392 4.294 1.271.844 2.559 2.475 4.097 2.927h1.756c2.747.631 5.824.195 8.391.975 4.536 1.378 8.601 3.523 12.244 5.854 11.1 7.1 20.186 17.21 26.342 29.269 .992 1.941 1.422 3.798 2.341 5.854 1.859 4.161 4.205 8.468 6.048 12.441 1.845 3.977 3.64 7.988 6.246 11.318 1.369 1.749 6.649 2.688 9.171 3.709 1.769.717 4.653 1.461 6.244 2.341 3.037 1.681 5.986 3.709 8.782 5.659 1.398.975 5.708 3.114 5.854 4.878z"/></svg>
