<svg xmlns="http://www.w3.org/2000/svg" viewBox="0 0 128 128"><path fill="#6BA539" d="M64 0C28.7 0 0 28.7 0 64s28.7 64 64 64 64-28.7 64-64S99.3 0 64 0zm0 118.4C34.3 118.4 9.6 93.7 9.6 64S34.3 9.6 64 9.6 118.4 34.3 118.4 64 93.7 118.4 64 118.4z"/><path fill="#6BA539" d="M87.2 48H72v-8c0-4.4 3.6-8 8-8s8 3.6 8 8v8h9.6v-8c0-9.7-7.9-17.6-17.6-17.6S62.4 30.3 62.4 40v8H40.8c-5.3 0-9.6 4.3-9.6 9.6v30.8c0 5.3 4.3 9.6 9.6 9.6h46.4c5.3 0 9.6-4.3 9.6-9.6V57.6c0-5.3-4.3-9.6-9.6-9.6zM64 80c-4.4 0-8-3.6-8-8s3.6-8 8-8 8 3.6 8 8-3.6 8-8 8z"/></svg>
