<svg xmlns="http://www.w3.org/2000/svg" viewBox="0 0 24 24" fill="#4285F4"><path d="M12 0C6.745 0 2.178 3.412.563 8.14l5.097 1.892c.703-2.29 2.839-3.96 5.375-3.96 1.047 0 2.02.29 2.855.788l3.077-4.063A10.948 10.948 0 0 0 12 0zm10.563 5.14L18.95 9.075c.547 1.007.87 2.15.87 3.375 0 .535-.065 1.054-.18 1.552l5.077 1.885C23.552 13.84 24 11.7 24 9.45c0-1.54-.28-3.018-.79-4.385-.118-.316-.248-.626-.39-.93l-.257-.995zM3.073 11.45c-.047.297-.073.6-.073.907 0 5.26 4.51 9.52 10.08 9.52 3.112 0 5.876-1.327 7.745-3.43l-3.964-3.407c-.985.873-2.3 1.405-3.755 1.405-2.77 0-5.1-1.898-5.76-4.462l-4.273-.533zm8.977-1.935a2.466 2.466 0 0 0-2.46 2.47 2.466 2.466 0 0 0 2.46 2.47 2.466 2.466 0 0 0 2.46-2.47 2.466 2.466 0 0 0-2.46-2.47z"/></svg>
