<svg xmlns="http://www.w3.org/2000/svg" viewBox="0 0 128 128"><path fill="#31A8FF" d="M14.316 0h99.368A14.316 14.316 0 01128 14.316v99.368A14.316 14.316 0 01113.684 128H14.316A14.316 14.316 0 010 113.684V14.316A14.316 14.316 0 0114.316 0z"/><path fill="#001E36" d="M28.396 83.581V38.042c0-.612.204-1.02.817-1.02.612 0 2.857-.205 5.714-.205 6.325 0 13.262 2.245 13.262 13.058 0 8.775-5.918 13.669-13.874 13.669-1.02 0-1.632 0-2.449-.204v20.241c0 .612-.204.816-.816.816H29.213c-.613 0-.817-.204-.817-.816zm8.163-22.897c.816.204 1.429.204 2.449.204 3.673 0 6.53-1.836 6.53-6.326 0-4.081-2.041-5.918-5.918-5.918-1.02 0-2.245 0-3.061.204v11.836zm31.269-11.019c-2.449 0-3.265.612-3.265.612v21.873s.816.408 2.245.612c4.897.612 8.163-1.836 8.163-9.795.204-8.775-3.469-13.302-7.143-13.302zm-.816-7.347c12.038 0 16.119 8.367 16.119 20.037 0 14.486-8.163 20.037-17.751 20.037-1.632 0-3.061-.204-4.286-.408-.408-.204-1.632-.612-2.449-1.02-.612-.204-.816-.612-.816-1.428V40.287c0-.612.204-1.02.816-1.02 1.02-.204 4.489-.949 8.367-.949z"/></svg>
