<svg xmlns="http://www.w3.org/2000/svg" viewBox="0 0 24 24" fill="#777BB4"><path d="M7.01 10.207h-.944l-.515 2.648h.838c.556 0 .97-.105 1.242-.314.272-.21.455-.559.55-1.049.092-.47.05-.802-.124-.995-.175-.193-.523-.29-1.047-.29zM12 5.688C5.373 5.688 0 8.514 0 12s5.373 6.313 12 6.313S24 15.486 24 12c0-3.486-5.373-6.312-12-6.312zm-3.26 7.451c-.261.25-.575.438-.917.551-.336.108-.765.164-1.285.164H5.357l-.327 1.681H3.652l1.23-6.326h2.65c.797 0 1.378.209 1.744.628.366.418.476 1.002.33 1.752a2.836 2.836 0 0 1-.349.883c-.162.27-.383.51-.65.714l-.867.953zm4.373-2.36h1.392l-.327 1.681h-1.392c-.078.406-.09.656-.036.748.054.093.197.14.427.14h.538l-.24 1.238h-.876c-.453 0-.772-.073-.958-.22-.186-.147-.245-.398-.18-.753l.59-3.041h-.74l.24-1.237h.74l.275-1.418h1.378l-.275 1.418h1.152l-.24 1.237h-1.152l-.316 1.207zm4.09-.025h-.944l-.515 2.648h.838c.557 0 .971-.105 1.243-.314.272-.21.455-.559.549-1.049.093-.47.05-.802-.123-.995-.175-.193-.523-.29-1.048-.29zm2.14 1.95c-.094.318-.22.622-.377.91-.161.27-.382.51-.649.714-.261.25-.575.438-.917.551-.336.108-.765.164-1.285.164h-1.181l-.327 1.681h-1.378l1.23-6.326h2.649c.797 0 1.378.209 1.744.628.366.418.477 1.002.33 1.752a2.836 2.836 0 0 1-.349.883l.51.043z"/></svg>
