<svg xmlns="http://www.w3.org/2000/svg" viewBox="0 0 128 128"><path fill="#6181B6" d="M64 33.039C30.26 33.039 2.906 46.901 2.906 64S30.26 94.961 64 94.961 125.094 81.099 125.094 64 97.74 33.039 64 33.039zM48.103 70.032c-1.458 1.364-3.077 1.927-4.86 2.507-1.783.581-4.052.461-6.811.461h-6.253l-1.733 10h-7.301l6.515-34H41.7c4.224 0 7.305 1.215 9.242 3.432 1.937 2.217 2.519 5.364 1.747 9.337-.319 1.637-.856 3.159-1.614 4.515-.759 1.357-1.75 2.624-2.972 3.748zm21.347 0c-1.458 1.364-3.076 1.927-4.86 2.507-1.782.581-4.051.461-6.81.461h-6.253l-1.733 10h-7.301l6.514-34h14.041c4.224 0 7.305 1.215 9.241 3.432 1.936 2.217 2.519 5.364 1.747 9.337-.319 1.637-.856 3.159-1.614 4.515-.758 1.357-1.749 2.624-2.972 3.748zm40.019-13.181c-.418 2.139-1.22 3.879-2.399 5.228-1.179 1.349-2.608 2.312-4.277 2.894l5.396 12.027h-8.072l-4.571-10.839h-5.252l-2.178 10.839h-7.3l6.514-34h14.671c4.047 0 6.941 1.05 8.676 3.149 1.732 2.099 2.249 5.014 1.552 8.702h-.76z"/><path fill="#fff" d="M38.17 48.595h-5.917l-2.881 14h4.573c2.565 0 4.554-.406 5.968-1.217 1.414-.812 2.404-2.318 2.969-4.519.556-2.17.397-3.684-.478-4.544-.873-.859-2.407-1.72-4.234-1.72zm24.27 0h-5.917l-2.881 14h4.573c2.565 0 4.554-.406 5.968-1.217 1.414-.812 2.404-2.318 2.969-4.519.556-2.17.397-3.684-.478-4.544-.873-.859-2.407-1.72-4.234-1.72zm32.654 0h-5.633l-2.209 10.839h4.385c2.491 0 4.412-.441 5.762-1.323 1.351-.882 2.259-2.424 2.727-4.627.453-2.125.242-3.576-.63-4.353-.874-.777-2.373-1.536-4.402-1.536z"/></svg>
