<svg xmlns="http://www.w3.org/2000/svg" viewBox="0 0 128 128"><path fill="#CB6699" d="M1.219 56.156c0 .703.207 1.167.323 1.618.756 2.933 2.381 5.45 4.309 7.746 2.746 3.272 6.109 5.906 9.554 8.383 2.988 2.148 6.037 4.248 9.037 6.38.515.366 1.002.787 1.561 1.236-.481.26-.881.489-1.297.7-3.959 2.008-7.768 4.259-11.279 6.986-2.116 1.644-4.162 3.391-5.607 5.674-2.325 3.672-3.148 7.584-1.415 11.761.506 1.22 1.278 2.274 2.367 3.053.353.252.749.502 1.162.6 1.058.249 2.136.412 3.207.609l3.033-.002c3.354-.299 6.407-1.448 9.166-3.352 4.312-2.976 7.217-6.966 8.466-12.087.908-3.722.945-7.448-.125-11.153-.099-.344-.224-.681-.354-1.014-.13-.333-.283-.657-.463-1.072l6.876-3.954.103.088c-.125.409-.258.817-.381 1.226-1.135 3.766-1.32 7.566-.766 11.427.454 3.159 1.477 6.124 3.323 8.782.078.112.154.225.235.333l.169.091c.267-.094.533-.187.8-.291 1.9-.743 3.749-1.59 5.502-2.62 4.266-2.507 8.092-5.58 11.342-9.301.939-1.076 1.813-2.207 2.389-3.548.235-.547.408-1.117.534-1.706.763-3.547-.263-6.717-2.162-9.661-1.458-2.26-3.329-4.15-5.345-5.905-.536-.467-1.089-.915-1.591-1.337.058-.089.089-.152.133-.202 1.748-1.972 3.091-4.203 4.13-6.61.979-2.27 1.677-4.622 1.996-7.078.282-2.174.31-4.347-.27-6.489-.545-2.015-1.399-3.89-2.674-5.535-.828-1.07-1.768-2.063-2.792-2.945-1.841-1.59-3.922-2.755-6.163-3.612-2.096-.8-4.26-1.339-6.479-1.672-1.447-.217-2.903-.376-4.357-.559h-3.872c-.238.044-.476.074-.713.127-2.271.508-4.558.94-6.789 1.56-4.349 1.209-8.489 2.921-12.348 5.238-2.386 1.432-4.592 3.106-6.476 5.176-2.101 2.307-3.614 4.941-4.136 8.064-.306 1.832-.286 3.661.211 5.477.706 2.577 2.063 4.755 3.983 6.582 1.086 1.034 2.304 1.912 3.594 2.704.178.109.35.229.549.359z"/></svg>
