<svg xmlns="http://www.w3.org/2000/svg" viewBox="0 0 24 24" fill="#8DC63F"><path d="M12 2C6.48 2 2 6.48 2 12s4.48 10 10 10 10-4.48 10-10S17.52 2 12 2zm0 2c1.93 0 3.68.78 4.95 2.05l-1.41 1.41C14.46 6.54 13.28 6 12 6c-3.31 0-6 2.69-6 6 0 1.28.54 2.46 1.46 3.54l-1.41 1.41C4.78 15.68 4 13.93 4 12c0-4.41 3.59-8 8-8zm4.95 12.95C15.68 18.22 13.93 19 12 19c-1.93 0-3.68-.78-4.95-2.05l1.41-1.41C9.54 16.46 10.72 17 12 17c3.31 0 6-2.69 6-6 0-1.28-.54-2.46-1.46-3.54l1.41-1.41c1.27 1.27 2.05 3.02 2.05 4.95 0 1.93-.78 3.68-2.05 4.95zM8.5 10c.83 0 1.5.67 1.5 1.5S9.33 13 8.5 13 7 12.33 7 11.5 7.67 10 8.5 10zm7 0c.83 0 1.5.67 1.5 1.5s-.67 1.5-1.5 1.5-1.5-.67-1.5-1.5.67-1.5 1.5-1.5zM12 16c-1.1 0-2-.45-2.6-1h5.2c-.6.55-1.5 1-2.6 1z"/></svg>
